<svg id="icon4" xmlns="http://www.w3.org/2000/svg" viewBox="0 0 24 24"><defs><style>.cls-1,.cls-2{fill:none;stroke:#a5a5a5;stroke-miterlimit:10;}.cls-2{stroke-linecap:round;}</style></defs><title>icon4_N</title><circle class="cls-1" cx="12" cy="12" r="11.5"/><line class="cls-2" x1="4.5" y1="18.5" x2="19.5" y2="18.5"/><circle class="cls-2" cx="18" cy="15" r="2.5"/><circle class="cls-2" cx="6" cy="15" r="2.5"/><path class="cls-2" d="M13.5,5.5h1.43a.73.73,0,0,1,.71.55L18,15"/><path class="cls-2" d="M16.23,10a.13.13,0,0,1,.11.21l-3.73,5.32a.69.69,0,0,1-.6.34l-5.54-.11a.71.71,0,0,1-.65-1L8,11s.5-1,.87-1Z"/><line class="cls-2" x1="12" y1="15.5" x2="8" y2="8.5"/><line class="cls-2" x1="6.5" y1="8.5" x2="9.5" y2="8.5"/><line class="cls-1" x1="18.33" y1="2.69" x2="4.33" y2="20.69"/></svg>