<svg id="Layer_1" data-name="Layer 1" xmlns="http://www.w3.org/2000/svg" viewBox="0 0 24 24"><defs><style>.cls-1,.cls-2,.cls-3{fill:none;stroke:#000;}.cls-1,.cls-3{stroke-miterlimit:10;}.cls-2{stroke-linejoin:round;}.cls-3{stroke-linecap:round;}</style></defs><title>Artboard 1</title><circle class="cls-1" cx="12" cy="12" r="11.5"/><rect class="cls-2" x="6.5" y="7" width="11" height="14" rx="0.66"/><path class="cls-3" d="M16.58,2.65,15,5A.65.65,0,0,1,14,5L12.42,2.65"/><path class="cls-3" d="M6.92,5.35,8.46,3A.64.64,0,0,1,9.54,3l1.54,2.31"/><circle class="cls-2" cx="9.5" cy="10.5" r="1.5"/><circle class="cls-2" cx="14.5" cy="10.5" r="1.5"/><polygon class="cls-2" points="9.5 18.44 11.25 18.46 10.36 15.88 9.5 13.27 8.64 15.88 7.75 18.46 9.5 18.44"/><polygon class="cls-2" points="14.5 18.44 16.25 18.46 15.36 15.88 14.5 13.27 13.64 15.88 12.75 18.46 14.5 18.44"/></svg>