<svg id="icon2" xmlns="http://www.w3.org/2000/svg" viewBox="0 0 24 24"><defs><style>.cls-1,.cls-2,.cls-3{fill:none;stroke:#a5a5a5;}.cls-1{stroke-miterlimit:10;}.cls-2,.cls-3{stroke-linejoin:round;}.cls-3{stroke-linecap:round;}</style></defs><title>icon2_N</title><circle class="cls-1" cx="12" cy="12" r="11.5"/><rect class="cls-2" x="7.75" y="7.51" width="8.5" height="13.74" rx="2.42"/><path class="cls-2" d="M12,7.53l2.75,0-.28-1.8a4.05,4.05,0,0,0-.88-1.94l-.43-.51A1.49,1.49,0,0,0,12,2.75h0a1.49,1.49,0,0,0-1.15.55l-.43.51a4.05,4.05,0,0,0-.88,1.94l-.28,1.8Z"/><line class="cls-3" x1="7.75" y1="11.21" x2="10.94" y2="11.21"/><line class="cls-3" x1="7.75" y1="14.55" x2="10.94" y2="14.55"/><line class="cls-3" x1="7.75" y1="18.08" x2="10.94" y2="18.08"/><path class="cls-3" d="M8,6.5c1.2,1,6.8,1,8,0"/><line class="cls-1" x1="18.5" y1="2.5" x2="4.5" y2="20.5"/></svg>