<svg id="icon3" xmlns="http://www.w3.org/2000/svg" viewBox="0 0 24 24"><defs><style>.cls-1{fill:none;stroke:#000;stroke-miterlimit:10;}</style></defs><title>icon3</title><circle class="cls-1" cx="12" cy="12" r="11.5"/><path d="M7.4,5.76H10v14H7.4Zm1.2,6h4.48a1.55,1.55,0,0,0,.84-.22,1.44,1.44,0,0,0,.56-.61,1.91,1.91,0,0,0,.2-.91,2.1,2.1,0,0,0-.19-.92,1.5,1.5,0,0,0-.56-.61,1.58,1.58,0,0,0-.85-.22H8.6V5.76H13a4.73,4.73,0,0,1,2.3.53A3.82,3.82,0,0,1,16.87,7.8a4.47,4.47,0,0,1,.55,2.25,4.41,4.41,0,0,1-.55,2.25,3.74,3.74,0,0,1-1.55,1.5,4.73,4.73,0,0,1-2.3.53H8.6Z"/></svg>