<?xml version="1.0" encoding="UTF-8"?>
<svg version="1.1" xmlns="http://www.w3.org/2000/svg" width="1024" height="1024">
<path d="M0 0 C337.92 0 675.84 0 1024 0 C1024 337.92 1024 675.84 1024 1024 C686.08 1024 348.16 1024 0 1024 C0 686.08 0 348.16 0 0 Z " fill="#FEFEFE" transform="translate(0,0)"/>
<path d="M0 0 C3.54477111 0.01070928 7.08903328 0.00004151 10.63378906 -0.01269531 C25.24965364 -0.02195425 39.65187418 0.66532964 54.18066406 2.26074219 C56.04851562 2.46376953 56.04851562 2.46376953 57.95410156 2.67089844 C84.80729433 5.86692261 111.69732148 12.23421452 137.18066406 21.26074219 C138.12490234 21.59154785 139.06914063 21.92235352 140.04199219 22.26318359 C187.34866211 38.97934889 231.78413577 63.97364336 268.77441406 98.06542969 C270.79047007 99.90475352 272.83654273 101.69031789 274.90332031 103.47167969 C279.48735819 107.47483785 283.81809282 111.70608909 288.11816406 116.01074219 C288.91230713 116.80569092 289.7064502 117.60063965 290.5246582 118.41967773 C295.36073368 123.30646563 299.90568236 128.23474823 304.13378906 133.65917969 C306.01648043 136.05206604 307.98663759 138.34087952 309.99682617 140.62670898 C367.5246097 206.55270909 396.33734046 299.26725672 396.43066406 385.69824219 C396.43200348 386.44453888 396.4333429 387.19083557 396.4347229 387.95974731 C396.42850309 404.18765016 395.1254331 420.15620241 393.18066406 436.26074219 C393.06851563 437.20369141 392.95636719 438.14664062 392.84082031 439.11816406 C392.13150933 444.86708581 391.22457552 450.56349758 390.18066406 456.26074219 C389.8891748 457.85354004 389.8891748 457.85354004 389.59179688 459.47851562 C383.44307281 492.35442888 373.50950758 524.01873808 359.18066406 554.26074219 C358.58995117 555.51588623 358.58995117 555.51588623 357.98730469 556.79638672 C336.14147146 602.85045142 303.41170852 647.30378021 264.18066406 680.26074219 C262.78847656 681.46923828 262.78847656 681.46923828 261.36816406 682.70214844 C206.0761906 730.52246786 136.49866632 762.02394735 64.18066406 772.26074219 C62.91528809 772.44266113 61.64991211 772.62458008 60.34619141 772.81201172 C-31.22238547 785.69950182 -123.82243125 765.54851068 -229.13183594 698.13574219 C-238.20829192 691.29123745 -246.96885124 684.15390405 -255.37011719 676.49121094 C-256.95997144 675.04335323 -258.56099917 673.60763576 -260.17480469 672.18652344 C-270.33986573 663.21540105 -280.11018626 653.66117763 -288.81933594 643.26074219 C-289.62371094 642.33390625 -290.42808594 641.40707031 -291.25683594 640.45214844 C-307.07012647 622.17125174 -320.81816851 602.23130513 -332.81933594 581.26074219 C-333.49947754 580.07883301 -333.49947754 580.07883301 -334.19335938 578.87304688 C-351.051142 549.38037306 -362.94503303 517.99733103 -371.81933594 485.26074219 C-372.01865723 484.54144531 -372.21797852 483.82214844 -372.42333984 483.08105469 C-375.177129 473.01119153 -376.80933546 462.74708759 -378.44433594 452.44824219 C-378.65074707 451.15595703 -378.8571582 449.86367188 -379.06982422 448.53222656 C-379.69694542 444.44651413 -380.27871682 440.35865833 -380.81933594 436.26074219 C-380.91609619 435.53445618 -381.01285645 434.80817017 -381.11254883 434.05987549 C-382.93364538 419.8836862 -383.12880527 405.77648564 -383.08007812 391.49755859 C-383.06935137 387.76611081 -383.08003984 384.03514428 -383.09277344 380.30371094 C-383.101693 366.49960678 -382.62414108 352.95044659 -380.81933594 339.26074219 C-380.73018921 338.56813293 -380.64104248 337.87552368 -380.54919434 337.16192627 C-379.95638664 332.62119343 -379.28200829 328.09655946 -378.56933594 323.57324219 C-378.40976913 322.5591629 -378.40976913 322.5591629 -378.24697876 321.52459717 C-364.74074771 236.49270681 -321.45834735 155.4630635 -256.81933594 98.26074219 C-256.02438721 97.54869629 -256.02438721 97.54869629 -255.21337891 96.82226562 C-196.88804291 44.71524543 -122.27316036 11.84699645 -44.81933594 2.26074219 C-44.07671509 2.16825195 -43.33409424 2.07576172 -42.56896973 1.98046875 C-28.37785014 0.27680758 -14.28339572 -0.05113857 0 0 Z " fill="#FEFEFE" transform="translate(505.8193359375,123.7392578125)"/>
<path d="M0 0 C3.54477111 0.01070928 7.08903328 0.00004151 10.63378906 -0.01269531 C25.24965364 -0.02195425 39.65187418 0.66532964 54.18066406 2.26074219 C56.04851562 2.46376953 56.04851562 2.46376953 57.95410156 2.67089844 C84.80729433 5.86692261 111.69732148 12.23421452 137.18066406 21.26074219 C138.12490234 21.59154785 139.06914063 21.92235352 140.04199219 22.26318359 C187.34866211 38.97934889 231.78413577 63.97364336 268.77441406 98.06542969 C270.79047007 99.90475352 272.83654273 101.69031789 274.90332031 103.47167969 C279.48735819 107.47483785 283.81809282 111.70608909 288.11816406 116.01074219 C288.91230713 116.80569092 289.7064502 117.60063965 290.5246582 118.41967773 C295.36073368 123.30646563 299.90568236 128.23474823 304.13378906 133.65917969 C306.01648043 136.05206604 307.98663759 138.34087952 309.99682617 140.62670898 C367.5246097 206.55270909 396.33734046 299.26725672 396.43066406 385.69824219 C396.43200348 386.44453888 396.4333429 387.19083557 396.4347229 387.95974731 C396.42850309 404.18765016 395.1254331 420.15620241 393.18066406 436.26074219 C393.06851563 437.20369141 392.95636719 438.14664062 392.84082031 439.11816406 C392.13150933 444.86708581 391.22457552 450.56349758 390.18066406 456.26074219 C389.8891748 457.85354004 389.8891748 457.85354004 389.59179688 459.47851562 C383.44307281 492.35442888 373.50950758 524.01873808 359.18066406 554.26074219 C358.58995117 555.51588623 358.58995117 555.51588623 357.98730469 556.79638672 C336.14147146 602.85045142 303.41170852 647.30378021 264.18066406 680.26074219 C262.78847656 681.46923828 262.78847656 681.46923828 261.36816406 682.70214844 C206.0761906 730.52246786 136.49866632 762.02394735 64.18066406 772.26074219 C62.91528809 772.44266113 61.64991211 772.62458008 60.34619141 772.81201172 C-31.22238547 785.69950182 -123.82243125 765.54851068 -229.13183594 698.13574219 C-238.20829192 691.29123745 -246.96885124 684.15390405 -255.37011719 676.49121094 C-256.95997144 675.04335323 -258.56099917 673.60763576 -260.17480469 672.18652344 C-270.33986573 663.21540105 -280.11018626 653.66117763 -288.81933594 643.26074219 C-289.62371094 642.33390625 -290.42808594 641.40707031 -291.25683594 640.45214844 C-307.07012647 622.17125174 -320.81816851 602.23130513 -332.81933594 581.26074219 C-333.49947754 580.07883301 -333.49947754 580.07883301 -334.19335938 578.87304688 C-351.051142 549.38037306 -362.94503303 517.99733103 -371.81933594 485.26074219 C-372.01865723 484.54144531 -372.21797852 483.82214844 -372.42333984 483.08105469 C-375.177129 473.01119153 -376.80933546 462.74708759 -378.44433594 452.44824219 C-378.65074707 451.15595703 -378.8571582 449.86367188 -379.06982422 448.53222656 C-379.69694542 444.44651413 -380.27871682 440.35865833 -380.81933594 436.26074219 C-380.91609619 435.53445618 -381.01285645 434.80817017 -381.11254883 434.05987549 C-382.93364538 419.8836862 -383.12880527 405.77648564 -383.08007812 391.49755859 C-383.06935137 387.76611081 -383.08003984 384.03514428 -383.09277344 380.30371094 C-383.101693 366.49960678 -382.62414108 352.95044659 -380.81933594 339.26074219 C-380.73018921 338.56813293 -380.64104248 337.87552368 -380.54919434 337.16192627 C-379.95638664 332.62119343 -379.28200829 328.09655946 -378.56933594 323.57324219 C-378.40976913 322.5591629 -378.40976913 322.5591629 -378.24697876 321.52459717 C-364.74074771 236.49270681 -321.45834735 155.4630635 -256.81933594 98.26074219 C-256.02438721 97.54869629 -256.02438721 97.54869629 -255.21337891 96.82226562 C-196.88804291 44.71524543 -122.27316036 11.84699645 -44.81933594 2.26074219 C-44.07671509 2.16825195 -43.33409424 2.07576172 -42.56896973 1.98046875 C-28.37785014 0.27680758 -14.28339572 -0.05113857 0 0 Z M-55.50683594 40.44824219 C-56.66127197 40.66109863 -57.81570801 40.87395508 -59.00512695 41.09326172 C-140.6824736 56.63244456 -218.05572712 99.3882797 -269.81933594 165.26074219 C-270.68560272 166.33570356 -271.55284139 167.40988223 -272.42089844 168.48339844 C-294.26493581 195.65742751 -312.39673585 226.67131389 -324.81933594 259.26074219 C-325.11501465 260.03627441 -325.41069336 260.81180664 -325.71533203 261.61083984 C-350.99693901 328.92294638 -355.35502766 403.52700158 -337.81933594 473.26074219 C-337.5525 474.32824707 -337.28566406 475.39575195 -337.01074219 476.49560547 C-325.18301553 522.95055818 -303.70425383 566.78533078 -273.81933594 604.26074219 C-272.74619141 605.63552734 -272.74619141 605.63552734 -271.65136719 607.03808594 C-269.73784047 609.47240755 -267.7886311 611.87133072 -265.81933594 614.26074219 C-264.57216797 615.78634766 -264.57216797 615.78634766 -263.29980469 617.34277344 C-252.540389 630.30915202 -240.73278136 642.82875447 -227.42871094 653.20996094 C-225.00479581 655.11498406 -222.67492068 657.10262022 -220.35131836 659.12792969 C-186.49466286 688.49006362 -145.32127838 709.63618081 -102.81933594 723.26074219 C-101.6231665 723.65036133 -101.6231665 723.65036133 -100.40283203 724.04785156 C-87.89206548 728.09244183 -75.25909962 731.13199055 -62.37597656 733.73779297 C-60.21068265 734.180694 -58.05396517 734.64850117 -55.89746094 735.13183594 C15.2743244 750.12763787 94.04560203 737.15175569 159.18066406 706.26074219 C160.03096191 705.86016602 160.88125977 705.45958984 161.75732422 705.046875 C186.82895864 693.14523603 210.01409022 678.11083612 231.53173828 660.60107422 C233.09520783 659.33020543 234.67081732 658.07431443 236.24707031 656.81933594 C244.83862604 649.82282004 252.64786837 642.00576464 260.49316406 634.19824219 C261.0530603 633.64361298 261.61295654 633.08898376 262.18981934 632.51754761 C269.32314543 625.43610738 275.98250309 618.19318366 282.18066406 610.26074219 C282.75840576 609.53169678 283.33614746 608.80265137 283.93139648 608.05151367 C319.380605 563.06301234 342.46747566 511.17134542 354.18066406 455.26074219 C354.44484131 454.05200439 354.44484131 454.05200439 354.71435547 452.81884766 C355.76239131 447.99292964 356.55079696 443.15622514 357.18066406 438.26074219 C357.31456543 437.22546387 357.4484668 436.19018555 357.58642578 435.12353516 C361.33703838 404.68408644 362.54897632 372.68349113 358.18066406 342.26074219 C357.95467529 340.6181543 357.95467529 340.6181543 357.72412109 338.94238281 C351.94915748 298.00171858 339.51431859 258.83250905 320.18066406 222.26074219 C319.64070801 221.22868652 319.64070801 221.22868652 319.08984375 220.17578125 C309.78017997 202.49302347 298.72870429 185.81173221 286.18066406 170.26074219 C285.4575 169.35710937 284.73433594 168.45347656 283.98925781 167.52246094 C281.74424138 164.7473154 279.46802112 162.0010783 277.18066406 159.26074219 C276.75092285 158.73931641 276.32118164 158.21789062 275.87841797 157.68066406 C269.87370362 150.40716667 263.59748963 143.49784067 256.93066406 136.82324219 C256.28154053 136.17331299 255.63241699 135.52338379 254.96362305 134.85375977 C250.52570482 130.46653485 245.91634503 126.32304686 241.18066406 122.26074219 C240.27703125 121.47570312 239.37339844 120.69066406 238.44238281 119.88183594 C193.53663471 81.79031364 139.4962499 56.09511026 82.18066406 43.26074219 C81.48021973 43.10025391 80.77977539 42.93976563 80.05810547 42.77441406 C72.12077942 40.9742374 64.11106088 39.75957691 56.05566406 38.63574219 C55.17313965 38.51239502 54.29061523 38.38904785 53.38134766 38.26196289 C39.12434555 36.36111697 25.03959178 36.07439513 10.67382812 36.07543945 C7.34784818 36.07326971 4.0222099 36.0551085 0.69628906 36.03613281 C-18.17900101 35.98527348 -36.9274094 36.94749775 -55.50683594 40.44824219 Z " fill="#464646" transform="translate(505.8193359375,123.7392578125)"/>
<path d="M0 0 C0.99080566 0.21962402 1.98161133 0.43924805 3.00244141 0.66552734 C36.334823 8.28790235 66.82007921 22.58539713 93.80908203 43.58105469 C94.56044434 44.15629883 95.31180664 44.73154297 96.0859375 45.32421875 C96.7464209 45.84072998 97.4069043 46.35724121 98.08740234 46.8894043 C100.20790827 48.33476944 100.20790827 48.33476944 104 48 C106.27972741 46.04546458 108.30905065 44.10726815 110.375 41.9453125 C110.98134277 41.32856659 111.58768555 40.71182068 112.21240234 40.0763855 C114.1513136 38.10182148 116.07637159 36.11444686 118 34.125 C119.92526894 32.14443487 121.85338499 30.16687057 123.78759766 28.19503784 C124.99080834 26.96738644 126.18863239 25.73442683 127.38037109 24.49563599 C128.20142334 23.654991 128.20142334 23.654991 129.0390625 22.79736328 C129.51553223 22.30438751 129.99200195 21.81141174 130.48291016 21.30349731 C134.54438404 17.81384222 138.35311538 17.56937019 143.53125 17.68359375 C148.45677674 18.3148717 151.14594857 21.03053622 154.3125 24.625 C157.20917889 28.70180733 157.2764918 32.05070317 157.5 36.92578125 C157.54033356 37.73204453 157.58066711 38.5383078 157.6222229 39.3690033 C157.75307294 42.01662212 157.87694104 44.66450836 158 47.3125 C158.08765359 49.14616241 158.17538194 50.97982124 158.26318359 52.81347656 C158.5186638 58.20855447 158.76216569 63.60411761 159 69 C159.04864197 70.09982208 159.04864197 70.09982208 159.0982666 71.22186279 C159.48928287 80.14618751 159.78704824 89.06972482 160 98 C160.03399902 99.27020996 160.06799805 100.54041992 160.10302734 101.84912109 C160.19724179 105.71191323 160.2598834 109.5739384 160.3125 113.4375 C160.34230957 114.61151367 160.37211914 115.78552734 160.40283203 116.99511719 C160.44669393 123.3280288 160.32551284 127.22374816 156 132 C151.2135899 136.42742934 147.90478795 137.17528542 141.515625 136.94921875 C140.37609375 136.91119141 139.2365625 136.87316406 138.0625 136.83398438 C136.804375 136.78564453 135.54625 136.73730469 134.25 136.6875 C132.9114691 136.63967168 131.57292702 136.59215547 130.234375 136.54492188 C125.48915172 136.37410853 120.74459274 136.18740078 116 136 C115.04585205 135.96263733 114.0917041 135.92527466 113.10864258 135.88677979 C105.73881748 135.59789809 98.3693369 135.30106179 91 135 C89.97056274 134.95829681 88.94112549 134.91659363 87.88049316 134.87362671 C82.10090264 134.63805997 76.32209688 134.39055098 70.54406738 134.11923218 C68.90445202 134.04238873 67.26472619 133.96785043 65.62487793 133.89614868 C63.53564563 133.80234677 61.44765407 133.69485807 59.359375 133.58203125 C58.22983398 133.5250708 57.10029297 133.46811035 55.93652344 133.40942383 C50.36592379 132.63274478 46.76378839 129.93447759 43.0625 125.875 C40.79163202 121.86758592 40.14030634 117.50353285 41 113 C43.92063114 108.09441406 47.45712205 104.2767768 51.515625 100.2890625 C52.13145447 99.67606293 52.74728394 99.06306335 53.3817749 98.43148804 C55.33317081 96.49121023 57.29143354 94.55803669 59.25 92.625 C60.58119051 91.3038501 61.91192451 89.98224006 63.2421875 88.66015625 C66.48953538 85.43475759 69.7430568 82.21570804 73 79 C49.59032892 55.37764707 17.25361368 42.8513193 -15 37 C-15.82306641 36.83153564 -16.64613281 36.66307129 -17.49414062 36.48950195 C-26.17210031 34.83848335 -34.70437068 34.64094942 -43.5 34.6875 C-44.6266658 34.69123123 -44.6266658 34.69123123 -45.77609253 34.69503784 C-73.24443193 34.83548581 -99.33527858 40.68263122 -124 53 C-124.6511377 53.31549805 -125.30227539 53.63099609 -125.97314453 53.95605469 C-166.8285867 73.83278859 -197.18982487 111.47198824 -212 154 C-214.91042553 162.83371394 -217.58593186 171.7946937 -219 181 C-219.17273438 182.0828125 -219.34546875 183.165625 -219.5234375 184.28125 C-220.90566566 193.97687945 -221.34739632 203.60198036 -221.48266602 213.39477539 C-221.64335707 219.98310847 -222.06416266 224.81728543 -226.71875 229.86328125 C-227.3065625 230.34152344 -227.894375 230.81976562 -228.5 231.3125 C-229.0878125 231.80363281 -229.675625 232.29476562 -230.28125 232.80078125 C-234.88265026 236.01130371 -240.64309645 235.53943644 -246 235 C-251.64304699 233.10179041 -255.00704273 229.19357718 -258.08447266 224.26220703 C-259.32077166 221.20739462 -259.29467745 218.59794948 -259.3359375 215.3046875 C-259.34431641 214.64842377 -259.35269531 213.99216003 -259.36132812 213.31600952 C-259.38098051 211.16876561 -259.38088128 209.02231967 -259.375 206.875 C-259.37445618 206.13858276 -259.37391235 205.40216553 -259.37335205 204.64343262 C-259.30028418 183.05860021 -255.80272068 162.49022661 -249 142 C-248.76555176 141.29230469 -248.53110352 140.58460938 -248.28955078 139.85546875 C-235.40188517 101.80183932 -210.67857669 66.73113712 -179 42 C-178.07574219 41.27039063 -177.15148437 40.54078125 -176.19921875 39.7890625 C-151.18777208 20.49741892 -122.77755994 7.03577771 -92 0 C-91.0934668 -0.21172852 -90.18693359 -0.42345703 -89.25292969 -0.64160156 C-60.73463387 -7.00702238 -28.46629522 -6.34770075 0 0 Z " fill="#464647" transform="translate(557,300)"/>
<path d="M0 0 C5.66905957 3.26227573 8.71333546 8.12604864 10.625 14.3125 C11.02055474 17.42850989 11.00511516 20.48808491 10.9375 23.625 C10.92549561 24.50454346 10.91349121 25.38408691 10.90112305 26.2902832 C9.74982992 80.8223844 -12.81544952 132.17983847 -50.375 171.3125 C-50.90996094 171.87469238 -51.44492187 172.43688477 -51.99609375 173.01611328 C-60.20721936 181.60413524 -68.7426538 189.34785805 -78.375 196.3125 C-78.95830078 196.7348291 -79.54160156 197.1571582 -80.14257812 197.59228516 C-124.43495244 229.23143179 -181.71363118 241.95449124 -235.375 234.3125 C-236.07608887 234.21598145 -236.77717773 234.11946289 -237.49951172 234.02001953 C-262.78155934 230.42348438 -286.98699482 221.45130735 -309.375 209.3125 C-310.3969043 208.76021729 -310.3969043 208.76021729 -311.43945312 208.19677734 C-322.12939316 202.34405995 -331.7863832 195.53271326 -341.28955078 187.91479492 C-344.26083286 185.6318958 -347.31868561 183.48019132 -350.375 181.3125 C-351.18654541 182.14499268 -351.99809082 182.97748535 -352.83422852 183.83520508 C-355.86358926 186.93726527 -358.90641434 190.02582341 -361.95336914 193.1105957 C-363.2672714 194.4445452 -364.57755281 195.78207165 -365.8840332 197.12329102 C-367.76861422 199.05669166 -369.66608028 200.97661908 -371.56640625 202.89453125 C-372.14274307 203.49151321 -372.7190799 204.08849518 -373.31288147 204.7035675 C-377.97109605 209.36429499 -382.15889391 211.84470275 -388.8125 212.8125 C-394.99573363 211.94467774 -399.00848626 209.0644407 -402.8125 204.1875 C-405.12646957 199.92979599 -405.55494095 196.68458986 -405.76391602 191.89526367 C-405.79332275 191.24741409 -405.82272949 190.59956451 -405.85302734 189.93208313 C-405.94939519 187.78171386 -406.03935332 185.63113187 -406.12890625 183.48046875 C-406.19449468 181.96803245 -406.26033042 180.45560685 -406.32640076 178.94319153 C-406.46451672 175.75805947 -406.59943875 172.5728117 -406.73217773 169.38745117 C-406.86676201 166.162976 -407.00533226 162.93871865 -407.14819336 159.71459961 C-408.48813654 129.46908043 -408.48813654 129.46908043 -408.65234375 115.42578125 C-408.67204727 114.56574997 -408.69175079 113.70571869 -408.71205139 112.81962585 C-408.72767694 107.05572052 -407.71203353 102.79527281 -403.62109375 98.44921875 C-403.02425781 97.97097656 -402.42742187 97.49273438 -401.8125 97 C-400.91337891 96.26330078 -400.91337891 96.26330078 -399.99609375 95.51171875 C-396.22276432 92.72036421 -392.55984169 93.15215172 -388.04296875 93.171875 C-387.13459763 93.17443298 -386.2262265 93.17699097 -385.29032898 93.17962646 C-371.37962445 93.27914823 -357.4772391 93.8265285 -343.57836914 94.37451172 C-340.29837819 94.50297304 -337.01826228 94.62057663 -333.73754883 94.72900391 C-329.71203488 94.86205065 -325.68755558 95.01292037 -321.66316795 95.17644501 C-320.15051637 95.23509931 -318.63761949 95.28778533 -317.12453651 95.333992 C-300.52531376 95.85174136 -300.52531376 95.85174136 -293.375 100.3125 C-289.99179328 103.93328824 -288.12389497 107.44045477 -287.875 112.4375 C-288.84729353 119.97277483 -292.79251685 124.15357075 -298.01171875 129.2421875 C-298.97087944 130.19498093 -298.97087944 130.19498093 -299.94941711 131.16702271 C-301.98013964 133.1810411 -304.02107407 135.18433727 -306.0625 137.1875 C-307.44665272 138.55659526 -308.83012391 139.92637991 -310.21289062 141.296875 C-313.59242347 144.64344827 -316.98115049 147.98044904 -320.375 151.3125 C-316.51476836 156.11044992 -316.51476836 156.11044992 -311.94921875 160.20703125 C-311.32563477 160.68317871 -310.70205078 161.15932617 -310.05957031 161.64990234 C-309.40053711 162.13668457 -308.74150391 162.6234668 -308.0625 163.125 C-307.36608398 163.64271973 -306.66966797 164.16043945 -305.95214844 164.69384766 C-299.33530167 169.51163707 -292.40588559 173.57266409 -285.16357422 177.36914062 C-283.57649276 178.20622536 -282.00744767 179.07730956 -280.44140625 179.953125 C-241.76136173 200.80194332 -193.70643776 201.88185612 -152.22265625 190.16552734 C-125.35622563 182.11757565 -101.69266335 167.50330135 -81.375 148.3125 C-80.63894531 147.62929688 -79.90289063 146.94609375 -79.14453125 146.2421875 C-50.26660314 118.53982107 -29.66760235 74.39661216 -28.26806641 34.24462891 C-28.23398682 32.55732666 -28.23398682 32.55732666 -28.19921875 30.8359375 C-28.17537109 29.670625 -28.15152344 28.5053125 -28.12695312 27.3046875 C-28.08384841 24.88559885 -28.0526725 22.46626932 -28.03320312 20.046875 C-27.84624546 12.20334897 -27.26781618 8.31953084 -21.77734375 2.66796875 C-15.28126192 -2.51157383 -7.67279973 -3.57008317 0 0 Z " fill="#464646" transform="translate(716.375,491.6875)"/>
<path d="M0 0 C0.66 1.32 1.32 2.64 2 4 C2.33 4.33 2.66 4.66 3 5 C3.08669432 6.4887186 3.10703494 7.981445 3.09765625 9.47265625 C3.09443359 10.37177734 3.09121094 11.27089844 3.08789062 12.19726562 C3.07951172 13.14279297 3.07113281 14.08832031 3.0625 15.0625 C3.05798828 16.01189453 3.05347656 16.96128906 3.04882812 17.93945312 C3.0370011 20.29303065 3.02052025 22.64648477 3 25 C2.67 25 2.34 25 2 25 C1.67 23.02 1.34 21.04 1 19 C0.67 19 0.34 19 0 19 C0 12.73 0 6.46 0 0 Z " fill="#4D4D4D" transform="translate(308,601)"/>
<path d="M0 0 C0.99 0 1.98 0 3 0 C3 6.93 3 13.86 3 21 C2.67 21 2.34 21 2 21 C1.67 18.69 1.34 16.38 1 14 C0.67 14 0.34 14 0 14 C0 9.38 0 4.76 0 0 Z " fill="#525252" transform="translate(310,657)"/>
<path d="M0 0 C0.66 0.33 1.32 0.66 2 1 C-4.30088759 7.45170671 -10.72898612 13.64325747 -18 19 C-14.63942694 11.14088206 -6.44383482 5.34701187 0 0 Z " fill="#2C2C2C" transform="translate(374,345)"/>
<path d="M0 0 C-1.24176695 0.70226141 -2.49385599 1.38629109 -3.75 2.0625 C-4.79414062 2.63677734 -4.79414062 2.63677734 -5.859375 3.22265625 C-8.36140628 4.1312406 -9.5332355 3.88336837 -12 3 C-8.62803192 -0.37196808 -4.5120049 -1.50400163 0 0 Z " fill="#343534" transform="translate(570,682)"/>
<path d="M0 0 C0.66 0.33 1.32 0.66 2 1 C-0.31 3.64 -2.62 6.28 -5 9 C-5.66 8.67 -6.32 8.34 -7 8 C-4.69 5.36 -2.38 2.72 0 0 Z " fill="#373637" transform="translate(232,238)"/>
<path d="M0 0 C0.66 0.33 1.32 0.66 2 1 C-0.06756277 3.7972908 -1.14440371 4.02692273 -4.6875 4.6875 C-5.780625 4.790625 -6.87375 4.89375 -8 5 C-5.45378681 2.99940392 -3.01962385 1.20784954 0 0 Z " fill="#303130" transform="translate(665,829)"/>
<path d="M0 0 C2.64 0 5.28 0 8 0 C6.875 1.5 6.875 1.5 5 3 C1.8125 3.1875 1.8125 3.1875 -1 3 C-0.67 2.01 -0.34 1.02 0 0 Z " fill="#545555" transform="translate(490,296)"/>
</svg>
